<svg width="294" height="274" viewBox="0 0 294 274" fill="none" xmlns="http://www.w3.org/2000/svg">
<circle cx="137" cy="137" r="137" fill="#F5F3EF"/>
<mask id="mask0_1_123" style="mask-type:alpha" maskUnits="userSpaceOnUse" x="0" y="0" width="274" height="274">
<circle cx="137" cy="137" r="137" fill="#387B58"/>
</mask>
<g mask="url(#mask0_1_123)">
<path d="M270.342 35.6232L210.533 41.4278L172.482 54.4618L131.084 64.3296C131.084 64.3296 128.908 68.6567 131.698 73.617C132.033 73.0365 169.414 75.0417 169.414 75.0417L198.872 82.8516L202.554 84.5929L214.829 86.6509L223.086 87.4953L230.785 90.6614L268.836 94.9885L271.904 94.6719L277.763 94.0914C277.763 94.0914 288.196 92.9305 292.157 68.2873C293.608 54.0924 287.191 31.7183 270.342 35.5177V35.6232Z" fill="#F47B6A"/>
<path d="M53.2537 232.452L41.8721 528.223C41.8721 528.223 73.1158 536.613 112.059 526.323C112.449 526.798 135.324 529.912 146.26 525.321C145.813 525.321 166.5 224.5 166.5 224.5L67.7597 222.901L53.2537 232.452Z" fill="#5946BF"/>
<path d="M87.8446 97.9432L79.2526 108.391C79.2526 108.391 53.4765 115.674 48.9015 142.322C44.3266 168.97 43.9918 230.499 44.3266 231.66C44.6613 232.821 44.6613 238.045 57.2146 242.108C69.7679 246.172 128.071 261.58 167.014 224.114C167.907 222.689 164.28 201.476 164.28 201.476L165.508 199.418L171.645 191.028C171.645 191.028 194.073 205.276 224.09 177.994C254.106 150.712 266.101 135.356 260.299 130.713C260.634 130.132 264.874 125.489 264.595 121.162C264.595 120.317 251.372 112.138 251.372 112.138L237.257 110.397L230.84 113.879L227.158 117.362C227.158 117.362 224.424 119.42 224.09 121.689C223.755 121.689 218.231 115.885 193.739 143.43C194.073 143.747 194.352 139.103 194.352 139.103C194.352 139.103 199.876 121.689 197.421 116.465L200.489 106.597V95.8324C200.489 95.8324 185.76 86.2812 184.868 85.3841C183.975 84.5398 171.087 85.9646 171.087 85.9646L168.018 88.2864L163.443 96.6767C163.443 96.6767 156.413 98.9985 152.731 107.705C152.731 108.022 127.569 104.539 127.569 104.539C127.569 104.539 120.818 95.8324 118.028 96.149C113.063 96.7822 88.012 97.9959 88.012 97.9959L87.8446 97.9432Z" fill="#419268"/>
<path d="M179.511 50.3987C179.511 50.3987 162.606 49.2378 169.078 88.3925C169.078 89.5534 200.377 106.651 200.377 106.651C200.377 106.651 208.077 101.426 214.772 86.0706C214.437 86.6511 202.497 84.6459 202.497 84.6459C202.497 84.6459 192.678 54.1981 210.755 40.8475C211.089 40.8475 197.867 40.2671 193.85 44.3303C194.742 44.3303 187.099 43.1694 183.751 46.0717C183.528 46.3883 179.511 50.3987 179.511 50.3987Z" fill="#A79E8C"/>
<path d="M221.857 69.8703C221.857 69.8703 229.836 68.1289 231.398 90.7669C231.733 91.0835 268.5 95.4106 268.5 95.4106C268.5 95.4106 270.955 112.244 264.483 121.215C264.148 120.898 238.149 125.014 230.784 113.933C228.943 113.088 212.038 89.2894 221.857 69.8703Z" fill="#A79E8C"/>
<path d="M202.387 85.0147C201.885 85.0147 201.383 84.6454 201.271 84.1704C193.349 49.8705 209.417 40.3193 210.086 39.8971C210.644 39.5805 211.314 39.7916 211.649 40.2665C211.983 40.7942 211.76 41.4274 211.258 41.744C211.258 41.744 207.408 44.0659 204.563 50.2399C201.885 56.0445 199.542 66.5456 203.503 83.6427C203.615 84.2232 203.224 84.8037 202.61 84.962C202.499 84.962 202.443 84.962 202.331 84.962L202.387 85.0147Z" fill="#322E55"/>
<path d="M189.052 66.7044C188.382 66.7044 187.88 66.2295 187.88 65.5963C187.88 48.7629 193.069 44.1192 193.292 43.9081C193.738 43.5388 194.463 43.5388 194.91 44.0137C195.3 44.4358 195.3 45.1218 194.91 45.544C194.798 45.6495 190.223 50.0821 190.223 65.649C190.223 66.2295 189.721 66.7044 189.052 66.7044Z" fill="#322E55"/>
<path d="M178.006 69.343C177.392 69.343 176.946 68.9209 176.834 68.3932C175.886 59.528 176.555 52.9846 178.843 49.0269C180.739 45.808 183.083 45.4386 183.362 45.4386C184.031 45.3331 184.533 45.808 184.645 46.3885C184.757 47.0217 184.254 47.4966 183.696 47.6021C183.529 47.6021 177.057 49.0797 179.121 68.1821C179.121 68.8153 178.731 69.2903 178.117 69.343H178.006Z" fill="#322E55"/>
<path d="M230.451 95.4106C229.781 95.4106 229.279 94.8829 229.279 94.3024C229.558 78.7883 226.378 73.6697 224.481 72.0339C223.309 70.9785 222.305 71.084 222.249 71.084C221.58 71.1896 221.077 70.7674 220.966 70.187C220.854 69.5537 221.356 69.0788 221.914 68.9205C222.082 68.9205 223.867 68.7094 225.82 70.2925C228.554 72.5616 231.79 78.5772 231.511 94.3552C231.511 94.9357 231.009 95.4106 230.339 95.4106H230.451Z" fill="#322E55"/>
<path d="M194.576 116.73H194.465C170.195 114.091 163.054 101.004 162.775 100.477C162.496 99.9489 162.775 99.3157 163.277 98.9991C163.835 98.7352 164.504 98.9991 164.839 99.474C164.839 99.5795 171.813 112.033 194.799 114.513C195.469 114.619 195.915 115.146 195.804 115.727C195.692 116.36 195.19 116.73 194.632 116.73H194.576Z" fill="#322E55"/>
<path d="M250.369 133.035C234.245 133.035 223.254 123.484 222.696 123.009C222.249 122.64 222.194 121.901 222.696 121.479C223.086 121.057 223.867 121.004 224.314 121.479C224.425 121.584 239.322 134.513 259.128 129.922C259.742 129.816 260.356 130.133 260.523 130.713C260.69 131.294 260.3 131.874 259.686 132.033C256.45 132.824 253.326 133.141 250.369 133.141V133.035Z" fill="#322E55"/>
<path d="M166.847 88.1824C167.182 87.6547 167.851 87.4957 168.409 87.7595C168.967 88.0761 169.134 88.7095 168.856 89.2371L164.28 97.0476C164.169 97.3112 163.889 97.4695 163.61 97.575C163.472 97.5848 149.762 102.479 138.169 151.136V151.241C138.169 151.347 133.316 164.012 136.719 171.294C136.998 171.874 136.719 172.455 136.106 172.719C135.994 172.824 135.827 172.824 135.715 172.824L135.659 172.877C135.213 172.877 134.766 172.612 134.599 172.243C132.483 167.762 133.048 161.792 134.019 157.245L79.5323 131.452C78.9744 131.188 78.7514 130.555 79.0304 129.974C79.3093 129.447 79.9792 129.236 80.5929 129.5L134.545 155.039C135.164 152.68 135.787 150.999 135.938 150.608C146.817 104.699 159.762 96.8365 162.44 95.6756L166.847 88.1824Z" fill="#322E55"/>
<path d="M140.234 209.339C126.732 209.339 110.05 204.326 90.5784 194.458C72.1111 185.065 57.8283 174.511 57.6609 174.406C57.1587 174.036 57.0471 173.35 57.4935 172.875C57.884 172.4 58.6093 172.295 59.1115 172.717C59.6694 173.139 115.629 214.246 150.276 206.067C160.096 203.745 167.349 197.624 171.924 187.862C201.047 132.296 196.751 116.993 196.695 116.834C196.695 116.676 196.695 116.465 196.695 116.254L198.983 107.125C199.094 106.545 199.764 106.175 200.378 106.281C200.991 106.386 201.382 107.019 201.27 107.6L199.039 116.465C199.652 118.998 201.828 135.779 174.044 188.759C169.19 199.154 161.379 205.698 150.89 208.178C147.598 208.917 144.027 209.286 140.289 209.286L140.234 209.339Z" fill="#322E55"/>
<path d="M104.862 126.756C104.639 126.756 104.416 126.65 104.193 126.597L78.9186 110.08C78.4164 109.711 78.2491 109.078 78.6396 108.55C79.0302 108.075 79.6997 107.917 80.2576 108.286L104.193 123.906L106.089 116.729C106.201 116.466 106.368 116.202 106.647 116.096C106.926 115.991 107.261 115.938 107.54 115.991L122.046 119.579L125.896 104.592C126.007 104.012 126.677 103.643 127.291 103.801C127.904 103.906 128.295 104.54 128.127 105.12L123.999 121.215C123.887 121.531 123.72 121.742 123.441 121.901C123.162 122.006 122.827 122.059 122.548 122.006L108.042 118.365L106.034 125.964C105.922 126.333 105.643 126.597 105.364 126.703C105.253 126.703 105.085 126.808 104.974 126.808L104.862 126.756Z" fill="#322E55"/>
<path d="M128.35 244.22H128.183C127.514 244.114 127.123 243.586 127.235 242.953C129.02 232.347 125.896 208.284 125.84 208.02C125.728 207.387 126.23 206.912 126.844 206.806C127.514 206.701 128.016 207.176 128.127 207.756C128.239 208.759 131.363 232.399 129.522 243.323C129.411 243.85 128.908 244.22 128.35 244.22Z" fill="#322E55"/>
<path d="M136.049 251.607C136.161 251.027 136.774 250.658 137.444 250.763C138.057 250.869 138.448 251.449 138.336 252.083C138.225 252.539 136.465 259.935 132.164 266.164C132.277 266.355 132.332 266.579 132.311 266.804L113.676 525.532C113.676 526.112 113.118 526.534 112.504 526.534H112.448C111.779 526.534 111.333 525.954 111.389 525.374L129.847 269.091C128.023 271.082 125.864 272.762 123.328 273.77C123.217 273.77 123.105 273.876 122.938 273.876H122.882C122.436 273.876 121.989 273.612 121.821 273.243C121.598 272.662 121.822 272.082 122.436 271.818C132.199 267.913 135.993 251.818 136.049 251.607Z" fill="#322E55"/>
<path d="M64.0773 272.451C63.1288 272.451 62.1245 272.451 61.176 272.346C60.5065 272.346 60.0602 271.765 60.116 271.185C60.1718 270.604 60.7297 270.13 61.3434 270.182C71.6092 270.974 80.3686 267.544 87.5658 259.945C92.9219 254.246 95.321 248.178 95.321 248.125C95.5442 247.544 96.2137 247.281 96.7716 247.492C97.3853 247.703 97.6642 248.336 97.4411 248.864C97.3295 249.127 94.9304 255.301 89.2396 261.37C82.3772 268.705 73.6735 272.504 63.9656 272.504L64.0773 272.451Z" fill="#322E55"/>
<path d="M273.689 95.8857C268.277 95.8857 263.2 92.5612 259.462 86.5983C255.836 80.7937 253.827 73.0366 253.827 64.8046C253.827 56.5727 255.836 48.8684 259.462 43.011C263.2 36.9953 268.222 33.7236 273.689 33.7236C279.157 33.7236 284.178 37.0481 287.916 43.011C291.543 48.8156 293.551 56.5727 293.551 64.8046C293.551 73.0366 291.543 80.7409 287.916 86.5983C284.178 92.614 279.157 95.8857 273.689 95.8857ZM273.689 35.8344C264.037 35.8344 256.115 48.8156 256.115 64.7519C256.115 80.6882 263.981 93.6694 273.689 93.6694C283.397 93.6694 291.264 80.6882 291.264 64.7519C291.264 48.8156 283.341 35.8344 273.689 35.8344Z" fill="#322E55"/>
<path d="M271.848 87.9705C263.591 87.9705 256.896 77.5222 256.896 64.7521C256.896 51.982 263.591 41.5337 271.848 41.5337C280.105 41.5337 286.8 51.982 286.8 64.7521C286.8 77.5222 280.105 87.9705 271.848 87.9705ZM271.848 43.6972C264.874 43.6972 259.183 53.1429 259.183 64.7521C259.183 76.3613 264.818 85.807 271.848 85.807C278.878 85.807 284.513 76.3613 284.513 64.7521C284.513 53.1429 278.878 43.6972 271.848 43.6972Z" fill="#322E55"/>
<path d="M97.8867 45.4386C94.595 45.4386 90.8569 45.0692 86.7283 44.2249C86.0588 44.1194 85.724 43.5389 85.8356 42.9057C85.9472 42.2724 86.5609 41.9558 87.2304 42.0614C98.0541 44.1721 105.977 43.3806 110.217 39.7395C114.178 36.4151 113.732 31.8242 113.732 31.6131C113.732 30.9798 114.122 30.5049 114.736 30.4521C115.406 30.4521 115.908 30.8215 115.963 31.402C115.963 31.6131 116.521 37.2066 111.723 41.3226C108.487 44.0666 103.912 45.4386 97.831 45.4386H97.8867Z" fill="#322E55"/>
<path d="M116.522 43.4857C114.625 43.4857 112.56 43.1163 110.44 42.4303C109.826 42.2193 109.548 41.586 109.771 41.0583C109.994 40.4779 110.663 40.214 111.221 40.4251C115.183 41.7443 118.586 41.6916 121.375 40.2668C125.95 37.945 127.513 32.8264 127.513 32.7208C127.68 32.1404 128.294 31.8238 128.963 31.9293C129.577 32.0876 129.912 32.668 129.8 33.3013C129.688 33.5651 128.015 39.4225 122.603 42.1665C120.706 43.0636 118.753 43.5385 116.577 43.5385L116.522 43.4857Z" fill="#322E55"/>
</g>
<path d="M269.871 35.3005L210.062 41.1051L172.012 54.139L130.614 64.0069C130.614 64.0069 128.438 68.3339 131.227 73.2942C131.562 72.7138 168.943 74.719 168.943 74.719L198.401 82.5288L202.084 84.2702L214.358 86.3282L222.615 87.1725L230.315 90.3386L268.365 94.6657L271.434 94.3491L277.292 93.7686C277.292 93.7686 287.725 92.6077 291.686 67.9645C293.137 53.7696 286.721 31.3955 269.871 35.1949V35.3005Z" fill="#DA5A40"/>
<path d="M124.197 49.2312C124.197 49.2312 135.021 43.3739 129.274 32.7145C128.381 31.8702 129.72 16.1978 111.086 23.1633C108.798 23.7965 105.786 22.319 100.708 21.4219C95.6314 20.5776 70.5806 19.2584 72.6449 36.8833C72.4217 36.8833 58.1389 45.168 70.3574 65.1675C71.9754 67.7532 80.0095 82.7924 85.0866 82.1592C90.1637 81.5259 124.643 54.772 124.643 54.772L124.197 49.3368V49.2312Z" fill="#DA5A40"/>
<path d="M125.09 44.2709C125.09 44.2709 130.613 82.8452 126.931 86.3279C123.249 89.8107 119.566 90.655 116.219 91.2355C112.871 91.8159 114.991 93.2935 114.991 93.2935L116.219 93.6101L117.446 95.9319C117.446 95.9319 120.18 106.064 107.348 115.931C107.962 116.248 94.4598 106.908 87.43 97.6733L82.5203 77.6738C82.5203 77.6738 68.7395 87.225 65.0572 70.3917C64.4435 67.806 68.7396 57.8854 79.1727 65.4841C78.838 64.6398 94.5156 60.5766 85.9236 43.1628C86.8163 43.1628 105.841 45.7485 110.193 41.4214C110.528 41.738 120.013 43.1628 121.854 41.738C121.854 41.1048 125.146 44.3237 125.146 44.3237L125.09 44.2709Z" fill="#A79E8C"/>
<path d="M179.04 50.076C179.04 50.076 162.135 48.9151 168.607 88.0697C168.607 89.2307 199.907 106.328 199.907 106.328C199.907 106.328 207.606 101.104 214.301 85.7479C213.966 86.3284 202.027 84.3231 202.027 84.3231C202.027 84.3231 192.207 53.8753 210.284 40.5248C210.619 40.5248 197.396 39.9443 193.379 44.0075C194.272 44.0075 186.628 42.8466 183.28 45.7489C183.057 46.0655 179.04 50.076 179.04 50.076Z" fill="#A79E8C"/>
<path d="M221.387 69.5476C221.387 69.5476 229.365 67.8062 230.927 90.4441C231.262 90.7608 268.029 95.0878 268.029 95.0878C268.029 95.0878 270.484 111.921 264.012 120.892C263.677 120.575 237.678 124.691 230.313 113.61C228.472 112.765 211.567 88.9666 221.387 69.5476Z" fill="#A79E8C"/>
<path d="M112.258 80.3128C111.421 80.3128 110.528 80.1545 109.524 79.7851C108.91 79.5741 108.631 78.9408 108.855 78.4131C109.078 77.8327 109.747 77.5688 110.305 77.7799C111.421 78.1493 112.816 78.4131 113.485 77.7799C115.55 75.6164 112.035 65.9069 108.91 59.7329C108.631 59.2052 108.91 58.5719 109.468 58.3081C110.026 58.0443 110.696 58.3081 110.975 58.8358C112.37 61.527 119.009 75.247 115.215 79.3102C114.545 80.049 113.541 80.4184 112.314 80.4184L112.258 80.3128Z" fill="#322E55"/>
<path d="M77.2758 75.0886C76.8295 75.0886 76.3832 74.8247 76.2158 74.4553C75.7136 73.9804 73.203 73.2944 70.6365 72.925C69.967 72.8195 69.5765 72.2918 69.6881 71.6586C69.7997 71.0253 70.3576 70.6559 71.0271 70.7615C72.0313 70.867 73.0914 71.1309 74.0956 71.3419C72.1987 69.9699 69.7439 69.4422 69.6881 69.4422C69.0744 69.3367 68.6838 68.7563 68.7954 68.123C68.9069 67.5426 69.5207 67.1732 70.1902 67.2787C70.4691 67.2787 77.3874 68.809 78.4475 73.8221C78.5591 74.4026 78.2243 74.9302 77.6106 75.0886C77.499 75.0886 77.3874 75.0886 77.2758 75.0886Z" fill="#322E55"/>
<path d="M91.0564 65.9595C90.3869 65.9595 89.8848 65.4845 89.8848 64.8513C89.8848 62.3712 90.6658 60.7353 92.1722 60.0493C95.4082 58.5718 100.374 62.2656 100.932 62.635C101.434 63.0044 101.545 63.6904 101.099 64.1653C100.708 64.6402 99.9832 64.7458 99.481 64.3236C97.6957 62.9516 94.5156 61.3158 93.1207 61.949C92.2839 62.3184 92.1165 63.6904 92.1165 64.7985C92.1165 65.4318 91.6701 65.9067 91.0006 65.9067L91.0564 65.9595Z" fill="#322E55"/>
<path d="M105.842 86.9086C97.027 86.9086 95.967 80.3652 95.9112 80.3124C95.7996 79.6792 96.3017 79.2043 96.8596 79.0987C97.5291 78.9932 98.0313 79.4153 98.1429 79.9958C98.1429 80.2069 99.0913 85.0616 106.623 84.745C107.293 84.745 107.795 85.1672 107.795 85.8004C107.795 86.4336 107.349 86.9086 106.679 86.9086C106.4 86.9086 106.121 86.9086 105.786 86.9086H105.842Z" fill="#322E55"/>
<path d="M201.916 84.692C201.414 84.692 200.912 84.3226 200.801 83.8477C192.878 49.5478 208.946 39.9965 209.616 39.5744C210.174 39.2578 210.843 39.4688 211.178 39.9438C211.513 40.4715 211.289 41.1047 210.787 41.4213C210.787 41.4213 206.938 43.7431 204.092 49.9171C201.414 55.7217 199.071 66.2228 203.032 83.32C203.144 83.9005 202.753 84.4809 202.14 84.6392C202.028 84.6392 201.972 84.6392 201.861 84.6392L201.916 84.692Z" fill="#322E55"/>
<path d="M188.581 66.3817C187.911 66.3817 187.409 65.9067 187.409 65.2735C187.409 48.4402 192.598 43.7965 192.821 43.5854C193.267 43.216 193.993 43.216 194.439 43.6909C194.83 44.1131 194.83 44.7991 194.439 45.2212C194.327 45.3268 189.752 49.7594 189.752 65.3263C189.752 65.9067 189.25 66.3817 188.581 66.3817Z" fill="#322E55"/>
<path d="M177.535 69.0203C176.921 69.0203 176.475 68.5981 176.363 68.0704C175.415 59.2052 176.084 52.6618 178.372 48.7042C180.269 45.4852 182.612 45.1158 182.891 45.1158C183.56 45.0103 184.063 45.4852 184.174 46.0657C184.286 46.6989 183.784 47.1738 183.226 47.2794C183.058 47.2794 176.586 48.7569 178.651 67.8593C178.651 68.4926 178.26 68.9675 177.647 69.0203H177.535Z" fill="#322E55"/>
<path d="M229.98 95.0878C229.31 95.0878 228.808 94.5601 228.808 93.9797C229.087 78.4656 225.907 73.347 224.01 71.7111C222.838 70.6557 221.834 70.7613 221.778 70.7613C221.109 70.8668 220.607 70.4447 220.495 69.8642C220.384 69.231 220.886 68.756 221.444 68.5977C221.611 68.5977 223.396 68.3867 225.349 69.9697C228.083 72.2388 231.319 78.2545 231.04 94.0325C231.04 94.6129 230.538 95.0878 229.868 95.0878H229.98Z" fill="#322E55"/>
<path d="M273.219 95.5629C267.807 95.5629 262.73 92.2384 258.991 86.2755C255.365 80.4709 253.356 72.7139 253.356 64.4819C253.356 56.2499 255.365 48.5456 258.991 42.6882C262.73 36.6726 267.751 33.4009 273.219 33.4009C278.686 33.4009 283.707 36.7253 287.446 42.6882C291.072 48.4929 293.081 56.2499 293.081 64.4819C293.081 72.7139 291.072 80.4182 287.446 86.2755C283.707 92.2912 278.686 95.5629 273.219 95.5629ZM273.219 35.5116C263.566 35.5116 255.644 48.4928 255.644 64.4291C255.644 80.3654 263.511 93.3466 273.219 93.3466C282.926 93.3466 290.793 80.3654 290.793 64.4291C290.793 48.4928 282.871 35.5116 273.219 35.5116Z" fill="#322E55"/>
<path d="M271.377 87.6478C263.12 87.6478 256.425 77.1995 256.425 64.4294C256.425 51.6592 263.12 41.2109 271.377 41.2109C279.634 41.2109 286.329 51.6592 286.329 64.4294C286.329 77.1995 279.634 87.6478 271.377 87.6478ZM271.377 43.3745C264.403 43.3745 258.712 52.8201 258.712 64.4294C258.712 76.0386 264.347 85.4842 271.377 85.4842C278.407 85.4842 284.042 76.0386 284.042 64.4294C284.042 52.8201 278.407 43.3745 271.377 43.3745Z" fill="#322E55"/>
<path d="M97.416 45.1158C94.1243 45.1158 90.3862 44.7464 86.2576 43.9021C85.5881 43.7966 85.2533 43.2161 85.3649 42.5829C85.4765 41.9497 86.0902 41.6331 86.7597 41.7386C97.5834 43.8494 105.506 43.0578 109.746 39.4168C113.707 36.0923 113.261 31.5014 113.261 31.2903C113.261 30.6571 113.652 30.1822 114.265 30.1294C114.935 30.1294 115.437 30.4988 115.493 31.0792C115.493 31.2903 116.051 36.8838 111.253 40.9998C108.017 43.7438 103.442 45.1158 97.3603 45.1158H97.416Z" fill="#322E55"/>
<path d="M116.051 43.163C114.154 43.163 112.09 42.7936 109.969 42.1076C109.356 41.8965 109.077 41.2633 109.3 40.7356C109.523 40.1551 110.193 39.8913 110.751 40.1024C114.712 41.4216 118.115 41.3688 120.905 39.9441C125.48 37.6222 127.042 32.5036 127.042 32.3981C127.209 31.8176 127.823 31.501 128.492 31.6065C129.106 31.7648 129.441 32.3453 129.329 32.9785C129.218 33.2424 127.544 39.0997 122.132 41.8437C120.235 42.7408 118.283 43.2157 116.107 43.2157L116.051 43.163Z" fill="#322E55"/>
<path d="M120.236 67.0673C121.376 67.0673 122.301 64.9174 122.301 62.2654C122.301 59.6133 121.376 57.4634 120.236 57.4634C119.096 57.4634 118.172 59.6133 118.172 62.2654C118.172 64.9174 119.096 67.0673 120.236 67.0673Z" fill="#322E55"/>
<path d="M116.61 90.7609C116.61 90.7609 99.1469 94.8769 91.3359 85.3257C91.3359 85.3257 98.7006 98.5707 116.889 93.8215C116.666 93.8215 116.666 90.7609 116.666 90.7609H116.61Z" fill="#322E55"/>
</svg>
