<?xml version="1.0" encoding="UTF-8"?>
<svg id="Layer_1" data-name="Layer 1" xmlns="http://www.w3.org/2000/svg" viewBox="0 0 299.33 249.56">
  <g>
    <path d="M217.31,202.63c18.72-3.66,34.32-10.44,46.91-25.12,6.97-8.13,12.6-17.17,17-26.93,1.83-4.06,3.09-8.01,3.99-12.31,3.8-18.06-6.42-34.19-19.46-45.77-29.51-26.21-69.17-39.6-108.49-39.94-19.82-.17-43.41,3.42-61.59,11.53-10.37,4.63-19.47,11.28-27.45,19.41-9.66,9.84-17.76,21.04-24.05,33.3-7.59,14.79-10.22,32.35-.54,46.81,4.38,6.55,9.79,11.3,13.77,17.93,1.18,1.96,1.95,4.1,2.17,6.35.26,2.61-1.17,4.73-3.73,5.4-7.6,1.98-15.28-3.06-20.45-8.28-20.4-20.58-21.09-50.74-7.41-75.32,5.87-10.55,13.11-20.02,21.37-28.81,13.56-14.43,31.45-26.27,50.4-32.07,13.28-4.06,35.49-7.55,49.46-8.69,5.2-.42,9.98-.38,15.2-.08,13.14.76,25.98,2.15,38.97,4.11,2.78.42,5.26.77,7.95,1.53,16.04,4.54,31.4,10.82,45.54,19.76,14.1,8.92,28.58,22.2,36.09,37.34,4.24,8.53,6.68,17.81,6.3,27.47-.4,10.36-3.5,20.15-8.39,29.19-4.31,7.97-9.11,15.34-14.63,22.49-15.76,20.39-37.02,28.5-61.01,35.13-7.56,2.09-14.99,3.26-22.78,4.37-12.9,1.83-25.57,3.1-38.63,3.28-8.83.12-17.22-.6-25.98-1.38-11.6-1.04-25.56-2.33-35.61-8.37-3.16-1.9-5.92-4.25-7.77-7.32s-.65-6.78,2.65-8.27c2.57-1.16,5.26-1.67,8.18-1.59,18.24.5,28.69,5.46,44.54,6.95,8.64.81,17,1.12,25.67,1.45,6.03.23,11.68.16,17.74.02,11.52-.26,22.76-1.38,34.04-3.58Z"/>
    <path d="M81.61,228.57c-5.79,2.74-23.99,4.24-34.43,7.68l-20.22,6.65-13.29,4.17c-3.14.99-6.2,1.91-9.45,2.43-1.12.18-2.2.01-2.99-.72-4.26-3.96,3.65-9.38,5.51-11.23,9.03-9.02,16.51-21.58,21.54-33.28,3.17-7.39.17-11.44,5.18-13.32,2.14-.8,4.31-.11,5.53,1.91,3.38,5.59.75,12.96-2.15,18.31-2.29,4.15-4.91,7.84-7.94,11.49l-11.52,13.92c8.53-1.81,16.38-3.69,24.44-5.84,3.04-.81,5.84-1.62,8.76-2.72l15.05-5.7c3.12-1.18,5.94-2.38,8.73-4.19,1.8-1.17,4.1-1.71,6.19-1.14,3.3.89,5.24,4.32,4.53,7.6-.4,1.83-1.75,3.18-3.49,4Z"/>
    <path d="M98.18,89.36c-1.33,1.73-3.92,1.81-5.79.9-4.46-2.15-8.65-8.68-6.2-11.82.65-.83,1.92-1.23,3.11-1.14,3.08.23,5.68,1.84,7.89,3.97s2.98,5.5.99,8.08Z"/>
    <path d="M124.83,87.7c-1.56,1.53-3.97,1.47-5.75.43-3.56-2.07-7.87-7.97-5.9-10.86,2.54-3.73,8.96-1.08,12.04,3.07,1.62,2.19,1.71,5.31-.38,7.36Z"/>
    <g>
      <path d="M197.1,94.28c.19-2.03,1.04-3.63,2.83-4.49,3.03-1.47,6.86-1.53,9.77.32,4.41,2.81,4.34,11.42,4.97,15.34l4.58,28.44c1.19,7.41,3.07,14.4,5.02,21.59.74,2.72,2.05,5.14,4.05,7.07l3.07-17.86c1.88-10.95,4.06-21.6,5.19-32.67l1.36-13.28c.33-3.18,1.15-6.17,2.3-9.12.86-2.21,2.81-3.15,5.07-2.58,3.03.76,4.39,3.23,4.05,6.3l-1.42,12.89-4.57,28.24c-1.5,9.27-3.3,18.16-5.23,27.3-1.41,6.69-2.69,16.03-12.1,15.47-6.71-.4-13.27-4.48-16.06-10.81-5.41-12.31-7.72-29.24-9.43-42.61-.77-6.05-1.64-11.79-2.74-17.78-.71-3.89-1.08-7.71-.71-11.74Z"/>
      <path d="M181.49,136.94c.47-1.82.42-8.33,3.23-8.64s5.5,1.49,6.54,4.29c1.29,3.51,1.37,7.43.25,11.18-2.81,9.46-7.6,18.08-13.86,25.66-2.19,2.65-4.41,4.92-7.24,6.77-4.18,2.74-9.22,3.06-13.73.79-7.76-3.92-12.98-13.35-15.44-21.52-4.33-14.37-4.12-29.79.53-44.03,2.65-8.13,6.79-16.32,15.45-18.86,4.86-1.43,10.13-.41,13.84,3,.71.66.92,1.65.76,2.51-.37,2.03-4.33,2.08-5.71,2.45-5.48,1.44-9.41,7.69-10.76,13.02-2.52,9.97-3.26,20.09-2.48,30.39.43,5.65,1.07,11,2.16,16.49.52,2.61,1.61,5.06,3.41,6.84,1.57,1.56,3.62,1.85,5.5.79,3.93-2.21,8.67-9.49,10.76-13.55,2.88-5.6,5.16-11.32,6.79-17.57Z"/>
      <path d="M129.14,177.57c.33,1.13.57,2.34-.25,3.12-2.36,2.24-5.78,2.18-8.43.26-3.59-2.59-5.49-6.62-6.31-11.02-1.74-9.33-2.92-18.44-3.08-27.97l-.45-26.76c-.08-4.55-.24-8.88.64-13.32.25-1.28,1.28-2.16,2.63-1.93,4.85.85,9.17,3.68,9.62,8.92.31,3.63.33,7.14.19,10.8-.26,6.66-.15,13.02.39,19.72l2.13,26.22c.34,4.16,1.73,7.88,2.93,11.95Z"/>
      <path d="M102.04,179.85c.41.91.55,2.04-.05,2.76-1.96,2.36-5.21,2.7-7.86,1.02-4.04-2.56-6.31-6.94-7.16-11.66-2.52-14.14-3.32-27.59-3.35-42l-.06-25.64c.28-1.24,1.01-2.18,2.34-2.1,5.5.35,9.83,3.47,10.51,9.21.51,4.3.49,8.47.31,12.83-.27,6.68-.25,13.02.17,19.7.58,9.18,1.42,18.07,2.59,27.17.4,3.09,1.26,5.81,2.56,8.71Z"/>
    </g>
  </g>
  <path d="M78.78,40.07l-5.85-15c-.88-2.26-3.13-3.81-5.63-3.36-3,.55-5.49,4.01-4.39,6.97l5.69,15.29-8.99,3.42L42.75,3.49l9.01-3.49,7.91,20.46c1.26-2.31,2.53-4.48,4.86-5.74,5.4-2.92,13.52-2.63,16.38,4.01l6.85,17.88-8.99,3.47Z"/>
  <polygon points="49.07 53.29 40.22 58.56 21.84 27.55 12.59 32.97 8.04 25.18 35.31 9.04 39.91 16.76 30.74 22.31 49.07 53.29"/>
  <path d="M109.83,21.82l7.6,2.11c-1.73,4.95-5.68,8.04-10.49,9.39-6.7,2.3-14.01.25-18.14-5.61-2.16-3.07-3.02-7.03-2.28-10.73,1.43-7.23,7.52-12.1,14.76-12.55,8.76-.55,14.32,4.78,15.38,13.27l-19.9,4.07c.36,2.19,1.73,3.75,3.75,4.27,3.68.95,7.53-.62,9.32-4.22ZM106.3,14.28c-.87-3.05-3.72-3.99-6.4-3.32s-4.54,2.79-3.89,5.43l10.28-2.11Z"/>
</svg>