<?xml version="1.0" encoding="UTF-8"?>
<svg id="Layer_1" data-name="Layer 1" xmlns="http://www.w3.org/2000/svg" viewBox="0 0 327.04 190.44">
  <path d="M96.87,190.44h-14.3c-.88-.34-1.8-.22-2.75-.28-6.62-.44-13.05-1.16-19.56-2.57-18.27-3.95-36.98-12.67-45.1-30.55-7.04-15.51-3.55-32.57,3.6-47.32,2.17-4.48,4.65-8.6,7.34-12.75.76-1.18,1.98-1.65,3.36-1.15,2.23.82,4.01,2.69,4.87,4.87.57,1.46-.1,2.36-.84,3.47-2.65,3.94-4.81,8.14-6.91,12.39-.57,1.15-.82,2.26-1.27,3.43-3.99,10.47-5.76,21.99-1.07,32.53,6.78,15.22,24.48,22.44,39.84,25.42,22.57,4.37,49.21,1.95,71.48-3.36,7.52-1.79,14.95-3.49,22.17-6.24l24.22-9.23,21.36-10.15c1.96-.93,3.73-1.89,5.55-2.98,1.23-.74,2.42-1.23,3.93-.66,2.13.81,3.86,2.73,4.36,4.95.39,1.72-.33,2.89-1.76,3.7-13.71,7.79-27.92,14.51-42.73,20.08-10.41,3.91-21.04,7.13-31.83,9.83-14.57,3.64-29.19,5.58-43.96,6.58Z"/>
  <path d="M281.02,29.91c-10.83-12.57-30.44-17.55-46.41-19-27.3-2.47-56.09,2.79-82.04,11.18l-24.33,9.29-14.05,6.28c-.77.34-1.43.51-2.29.27-2.46-.69-4.71-2.32-5.73-4.68-.66-1.53-.05-3.12,1.36-3.83l4.72-2.37,20.55-8.64c16.59-6.98,39.69-13.19,57.53-15.92,8.12-1.24,16.04-2.03,24.22-2.38,11.72-.49,25.21.42,36.69,3.02,12.5,2.83,24.87,7.77,34.24,16.67,13.36,12.69,16.3,30.07,11.36,47.44-1.69,5.92-4,11.46-6.91,16.85-.99,1.84-5.91.95-8.41-2.5-.71-.97-.64-2.03-.14-3.01,3.16-6.29,5.45-11.59,6.79-18.58,2.09-10.9.2-21.57-7.15-30.1Z"/>
  <g>
    <path d="M130.49,139.76l-10.87-.16-8.17.21-.02-27.45c0-1.27-.8-2.29-1.56-2.91-2.46-1.98-6.54.25-8.57,2.25v18.59s5.7.04,5.7.04v9.46s-12.95-.2-12.95-.2l-12.03.19v-9.57s6.03.06,6.03.06v-22.65s-6.02.1-6.02.1v-9.73s19.25.19,19.25.19c.13,1.34-.13,2.54.13,3.8,4.49-4.57,11.13-5.98,16.94-3.65,2.18.87,3.73,2.45,4.86,4.49,4.4-3.76,8.99-6.21,14.8-5.45,3.58.47,6.9,2.34,8.5,5.63.89,1.83,1.09,3.86,1.1,5.93l.09,21.33,6.02.1v9.42s-10.52-.19-10.52-.19l-8.59.21-.04-27.84c0-.91-.65-1.86-1.2-2.41-2.04-2.02-7.05.28-8.68,2.38v18.35s5.79.05,5.79.05l.02,9.43Z"/>
    <path d="M164.63,157.37l-13.05.29v-9.51s6.1-.05,6.1-.05v-40.6s-5.87.23-5.87.23v-9.71s9.5.21,9.5.21l9.45-.21.03,4.71,2.72-2.77c3.12-3.18,13.58-4.97,19.95,2.18,2.46,2.75,4.08,5.96,4.92,9.58,1.93,8.34.54,18.35-5.82,24.56-4.05,4.07-9.79,5.28-15.24,3.49-2.65-.87-4.65-2.6-6.52-4.82v13.16s5.69.04,5.69.04v9.51s-11.85-.29-11.85-.29ZM177.5,129.68c5.08.42,7.39-3.89,7.97-8.07.52-3.79.28-8.86-2.56-11.73-1.58-1.6-3.82-2.04-6.11-1.55-1.78.38-3.37,1.79-4.4,3.65-2.76,4.99-2.69,17.06,5.1,17.71Z"/>
  </g>
  <g>
    <path d="M141.83,76.59l5.63.2v9.46s-12.13-.2-12.13-.2l-12.47.19v-9.58s5.87.06,5.87.06v-22.61s-5.83.09-5.83.09l-.04-9.71,18.92.15.12,3.72,3.21-2.37c3.86-2.85,9.28-3.19,13.74-1.31,3.28,1.39,5.4,4.32,5.99,7.72.3,1.7.43,3.24.43,4.99l.02,19.18,5.7.2v9.45s-10.9-.19-10.9-.19l-8.03.19-.09-27.62c0-2.59-2.99-3.77-5.16-3.1-1.91.59-3.41,1.54-4.99,2.75v18.31Z"/>
    <path d="M193.93,76.6l5.62.19.02,9.47-12.09-.2-12.52.2v-9.59s5.88.08,5.88.08l-.02-22.66-5.85.11v-9.7s18.94.16,18.94.16l.05,3.74,3.17-2.34c3.91-2.88,9.39-3.27,13.9-1.33,3.26,1.4,5.34,4.34,5.93,7.72.31,1.75.41,3.35.41,5.15l.02,18.97,5.7.2.02,9.45-10.86-.19-8.09.19-.09-27.59c0-2.6-2.96-3.81-5.16-3.13-1.9.59-3.38,1.53-4.99,2.74v18.33Z"/>
    <path d="M250.55,82.48c-3.84,3.74-8.95,5.31-14.25,4.42-6.26-1.05-10.72-6.21-10.79-12.6-.03-2.71.47-5.26,2-7.52,5.07-7.52,15.35-7.81,23.09-4.16.11-1.31.08-2.69,0-4.04-.14-3.42-2.79-5.68-6.12-5.89s-6.4,1.22-7.82,4.38l-11.36-1.83c.97-2.22,2.05-4.19,3.7-5.88,5.7-4.86,12.75-6.23,20.11-5.41,3.56.39,6.85,1.47,9.77,3.49,3.87,2.68,4.76,7.06,4.77,11.6l.03,17.71,5.85-.09.02,9.59-9.36-.18-9.48.2-.15-3.77ZM250.71,74.51l-.04-3.71c-2.19-1.45-4.68-2.49-7.34-2.46-2.91.04-4.99,2.11-5.05,4.97-.03,1.61.66,3,1.81,3.93,3.21,2.59,7.98-.14,10.62-2.72Z"/>
    <path d="M109.56,72.56l10.92,3.46c-4.28,7.64-11.48,11.37-19.94,11.28-4.42-.05-8.64-1.04-12.28-3.63-7.37-5.24-9.32-14.57-7.69-23.08,1.14-5.95,4.6-11.2,9.83-14.3,4.29-2.54,9.35-3.21,14.26-2.26s9.18,3.89,12.21,7.85c3.92,5.06,3.71,10.94,3.71,17.08l-28.14.02c0,3.57,1.81,6.79,5.04,8.17s7.14.65,9.95-1.54c.87-.89,1.48-1.71,2.15-3.05ZM107.62,61.29c-.07-1.56-.37-2.55-.73-3.69-.92-2.62-3.24-4.25-5.99-4.43-4.76-.3-8.16,3.42-8.43,8.13l15.14-.02Z"/>
  </g>
  <g>
    <path d="M327.04,98.21v9.55l-5.64-.17-12.93,32.23h-12.22s-13-32.23-13-32.23l-5.8-.07v-9.54s24.89.2,24.89.2v9.54s-4.98-.12-4.98-.12l5.87,17.25.57,3.43c.3-1.77.77-3.41,1.43-5.17l5.85-15.49-4.83-.1v-9.53s20.79.21,20.79.21Z"/>
    <g>
      <path d="M265.54,139.3c-5.13,2.02-10.74,2.04-15.8.16-6.89-2.56-11.74-8.73-13-15.9-.57-3.27-.54-6.37.09-9.62,1.36-7.04,6.2-13.09,13.03-15.51,4.8-1.7,10.07-1.73,14.89-.1,7.55,2.55,12.78,9.43,13.71,17.25.26,2.18.29,4.04.06,6.26-.82,7.68-5.61,14.56-12.97,17.46ZM258.39,130.24c7.16-.93,7.69-13.29,5.05-18.74-1.01-2.08-2.76-3.54-4.79-3.83-2.29-.34-4.47.29-5.95,2.02-2.92,3.39-3.13,9.13-2.38,13.31s3.56,7.83,8.07,7.25Z"/>
      <path d="M201.19,139.81v-9.61s6.41.08,6.41.08v-22.69s-6.41.16-6.41.16v-9.75s18.61.2,18.61.2l.11,10.04c.99-1.7,1.66-3.3,2.79-4.82,3.26-4.4,6.86-6.36,12.46-6.14l-.02,13.17c-5.86-.66-10.51,1.64-12.97,6.79-.94,2.09-1.4,4.26-1.39,6.57v6.33s7.4.18,7.4.18v9.48s-13.5-.21-13.5-.21l-13.49.21Z"/>
    </g>
  </g>
  <g>
    <path d="M32.68,39.15v-9.31s11.83.3,11.83.3l11.08-.19v9.36s-5.89-.1-5.89-.1l-15.86,47.06h-11.7S5.92,39.26,5.92,39.26l-5.89-.09-.03-9.34,14.1.32,13.23-.19v9.34s-6.1-.05-6.1-.05l7.12,24.19c.68,2.3,1.12,4.41,1.55,6.68.19-2.06.43-3.83,1.04-5.79l7.88-25.25-6.15.07Z"/>
    <g>
      <polygon points="66.16 139.6 52.88 139.8 52.87 130.35 59.59 130.5 59.78 54.14 53.47 54.24 53.47 44.46 72.94 44.57 72.99 130.26 79.08 130.58 79.11 139.79 66.16 139.6"/>
      <path d="M73,37.52c-3.25,2.32-7.79,2.27-10.99.02-1.27-.89-1.97-2.24-2.01-3.59-.05-1.47.63-2.79,1.82-3.76,3.3-2.68,9.5-2.57,12.19.89,1.62,2.07,1.24,4.82-1.02,6.44Z"/>
    </g>
  </g>
</svg>